<?xml version="1.0" standalone="no"?>
<!DOCTYPE svg PUBLIC "-//W3C//DTD SVG 20010904//EN"
 "http://www.w3.org/TR/2001/REC-SVG-20010904/DTD/svg10.dtd">
<svg version="1.0" xmlns="http://www.w3.org/2000/svg"
 width="165.000000pt" height="52.000000pt" viewBox="0 0 165.000000 52.000000"
 preserveAspectRatio="xMidYMid meet">

<g transform="translate(0.000000,52.000000) scale(0.100000,-0.100000)"
fill="#000000" stroke="none">
<path d="M961 163 c-42 -4 -43 -5 -37 -35 3 -17 6 -48 6 -69 l0 -39 355 0 355
0 0 70 0 70 -297 0 c-164 0 -307 2 -318 4 -11 1 -40 1 -64 -1z m79 -18 c7 -9
9 -19 5 -23 -4 -4 -10 -1 -12 6 -6 14 -33 16 -33 2 0 -6 11 -16 25 -22 30 -13
41 -43 24 -64 -17 -21 -63 -14 -68 11 -3 19 -2 19 15 4 11 -9 25 -14 32 -12
19 7 14 31 -10 44 -31 16 -38 30 -27 51 12 22 32 23 49 3z m70 -51 c0 -41 2
-45 23 -42 19 3 22 10 25 51 3 49 22 57 22 9 0 -48 -12 -72 -36 -78 -37 -9
-54 12 -54 68 0 30 4 47 10 43 6 -3 10 -26 10 -51z m170 41 c17 -21 8 -50 -18
-53 -14 -2 -22 -10 -22 -22 0 -10 -4 -22 -10 -25 -6 -4 -10 17 -10 54 0 58 1
61 24 61 13 0 29 -7 36 -15z m110 0 c16 -19 3 -55 -21 -55 -12 0 -19 -7 -19
-19 0 -11 -4 -23 -10 -26 -6 -4 -10 17 -10 54 0 58 1 61 24 61 13 0 29 -7 36
-15z m86 -85 c13 0 24 -4 24 -10 0 -5 -13 -10 -30 -10 l-30 0 2 63 2 62 3 -52
c4 -49 6 -53 29 -53z m68 73 l14 -28 13 28 c7 15 16 27 21 27 12 0 10 -8 -8
-36 -9 -13 -20 -39 -24 -57 -7 -28 -8 -29 -9 -7 -1 14 -8 36 -16 50 -14 25
-19 50 -10 50 2 0 11 -12 19 -27z"/>
<path d="M1240 109 c0 -24 23 -21 28 4 2 10 -3 17 -12 17 -10 0 -16 -9 -16
-21z"/>
<path d="M1350 109 c0 -24 23 -21 28 4 2 10 -3 17 -12 17 -10 0 -16 -9 -16
-21z"/>
</g>
</svg>
